<?xml version="1.0" encoding="iso-8859-1"?>
<!-- Generator: Adobe Illustrator 13.0.0, SVG Export Plug-In . SVG Version: 6.00 Build 14948)  -->
<!DOCTYPE svg PUBLIC "-//W3C//DTD SVG 1.1//EN" "http://www.w3.org/Graphics/SVG/1.1/DTD/svg11.dtd">
<svg version="1.1" id="Layer_1" xmlns="http://www.w3.org/2000/svg" xmlns:xlink="http://www.w3.org/1999/xlink" x="0px" y="0px"
	 width="300px" height="120px" viewBox="0 0 300 120" style="enable-background:new 0 0 300 120;" xml:space="preserve">
<path d="M16.375,105.763c-3.355,0-6.643-0.41-9.315-1.098l0.413-7.053c2.602,0.96,6.232,1.711,9.588,1.711
	c5.069,0,9.179-2.12,9.179-7.119c0-9.727-20.205-5.616-20.205-20.55c0-7.945,6.231-13.491,16.986-13.491
	c2.739,0,5.546,0.342,8.354,0.82l-0.411,6.647c-2.671-0.823-5.616-1.303-8.355-1.303c-5.753,0-8.698,2.67-8.698,6.506
	c0,9.248,20.205,5.821,20.205,20.272C34.114,99.6,27.403,105.763,16.375,105.763"/>
<path d="M52.122,105.556c-1.916,0-3.353-0.07-5.135-0.408v14.819h-7.328V71.039h6.918c0,1.783-0.07,4.521-0.412,6.368h0.139
	c1.917-4.313,5.818-7.053,11.024-7.053c8.083,0,12.534,5.752,12.534,16.026C69.862,98.365,63.493,105.556,52.122,105.556
	 M55.41,76.383c-5.478,0-8.423,6.439-8.423,12.256v10.482c1.575,0.479,3.288,0.685,5.342,0.685c5.821,0,9.794-3.563,9.794-12.741
	C62.123,80.218,60,76.383,55.41,76.383z"/>
<path d="M93.363,77.546c-6.781-1.232-10.068,3.494-10.068,13.698v13.833h-7.331V71.039h6.988c0,1.916-0.207,4.933-0.687,7.535h0.138
	c1.506-4.59,4.932-8.838,11.303-8.22L93.363,77.546"/>
<path d="M103.824,65.971c-2.601,0-4.726-2.055-4.726-4.59c0-2.531,2.125-4.588,4.726-4.588c2.535,0,4.658,1.987,4.658,4.588
	C108.482,63.916,106.359,65.971,103.824,65.971 M107.454,105.077h-7.327V71.039h7.327V105.077z"/>
<path d="M137.595,105.077V83.16c0-4.245-1.167-6.708-5.069-6.708c-5.136,0-8.906,5.408-8.906,12.187v16.438h-7.328V71.039h6.988
	c0,1.783-0.137,4.724-0.48,6.642l0.069,0.067c1.986-4.382,6.096-7.394,11.849-7.394c7.737,0,10.139,4.862,10.139,10.889v23.834
	H137.595"/>
<path d="M165.045,105.693c-7.258,0-9.452-2.808-9.452-10.408V76.725h-6.502v-5.686h6.502V60.218l7.261-1.987v12.808h8.971v5.686
	h-8.901v16.297c0,5.072,1.027,6.44,4.449,6.44c1.508,0,3.154-0.206,4.452-0.548v6.026
	C169.838,105.353,167.303,105.693,165.045,105.693"/>
<path style="fill:#FFDD05;" d="M235.524,83.659c11.446-14.737,20.451-32.047,20.451-44.479c0-6.497-4.653-11.031-10.718-14.479
	C245.369,38.211,240.693,69.888,235.524,83.659"/>
<path style="fill:#FFDD05;" d="M197.985,119.967c26.834-8.978,65.724-29.886,92.779-48.567c2.261-1.563,4.038-3.019,4.038-5.553
	c0-4.415-8.086-10.329-12.008-12.686C261.509,75.292,219.149,108.439,197.985,119.967"/>
<path style="fill:#FFDD05;" d="M222.876,101.173c16.541-11.442,40.579-32.956,48.71-44.664c1.915-2.756,3.332-4.351,3.332-7.231
	c0-4.727-5.504-8.188-9.473-10.597C255.951,61.071,234.603,88.948,222.876,101.173"/>
<path style="fill:#FFDD05;" d="M237.947,69.448c2.14-14.14,0.88-31.209-1.849-41.916c-1.486-5.829-6.741-12.41-11.602-14.465
	C230.866,31.157,236.338,56.918,237.947,69.448"/>
<path style="fill:#FFDD05;" d="M233.237,49.612C228.222,36.064,215.73,7.827,197.353,0.83
	C209.316,14.033,227.064,40.229,233.237,49.612"/>
<polyline points="251.817,101.219 251.817,105.077 251.224,105.077 251.224,101.219 249.97,101.219 249.97,100.722 253.078,100.722 
	253.078,101.219 251.817,101.219 "/>
<path d="M258.349,105.077l-0.364-2.517c-0.073-0.497-0.113-0.813-0.14-1.073h-0.011c-0.046,0.21-0.118,0.481-0.214,0.79l-0.937,2.8
	h-0.632l-0.887-2.613c-0.107-0.329-0.225-0.691-0.276-0.977h-0.006c-0.025,0.356-0.072,0.707-0.121,1.133l-0.299,2.457h-0.604
	l0.638-4.355h0.729l0.916,2.742c0.111,0.317,0.194,0.607,0.245,0.865h0.014c0.064-0.303,0.13-0.517,0.232-0.827l0.949-2.78h0.736
	l0.657,4.355H258.349"/>
<path d="M176.637,63.956c-1.632,0-2.862-1.257-2.862-2.861c0-1.577,1.285-2.864,2.862-2.864c1.619,0,2.864,1.243,2.864,2.864
	C179.501,62.644,178.187,63.956,176.637,63.956 M176.637,58.785c-1.258,0-2.267,1.024-2.267,2.281c0,1.262,1.009,2.341,2.267,2.341
	c1.259,0,2.271-1.027,2.271-2.285S177.896,58.785,176.637,58.785z M177.203,62.686l-0.938-1.454h-0.027v1.454h-0.515v-3.225h0.913
	c0.763,0,1.066,0.32,1.066,0.804c0,0.553-0.347,0.884-0.871,0.94c0.068,0.083,0.193,0.264,0.32,0.457l0.702,1.023H177.203z
	 M176.609,59.878h-0.371v1.021h0.232c0.542,0,0.706-0.303,0.706-0.565C177.177,60.017,177.025,59.878,176.609,59.878z"/>
</svg>
