<?xml version="1.0" encoding="utf-8"?>
<!-- Generator: Adobe Illustrator 17.1.0, SVG Export Plug-In . SVG Version: 6.00 Build 0)  -->
<!DOCTYPE svg PUBLIC "-//W3C//DTD SVG 1.1//EN" "http://www.w3.org/Graphics/SVG/1.1/DTD/svg11.dtd">
<svg version="1.1" id="Layer_1" xmlns="http://www.w3.org/2000/svg" xmlns:xlink="http://www.w3.org/1999/xlink" x="0px" y="0px"
	 viewBox="0 0 563 123" enable-background="new 0 0 563 123" xml:space="preserve">
<g>
	<path fill="#FFFFFF" d="M61.1,14.1c26.4,0,47.5,21.2,47.5,47.6s-21.1,47.4-47.5,47.4s-47.4-21-47.4-47.4
		C13.8,35.2,34.8,14.1,61.1,14.1z M61.1,99.7c21,0,38.3-17.1,38.3-38.1S82.1,23.2,61.1,23.2S23,40.6,23,61.6
		C23,82.6,40.2,99.7,61.1,99.7z"/>
	<path fill="#FFFFFF" d="M160.5,16.3c0-1.3,1.2-2.4,2.5-2.4h3.3l59.5,74.1c0.1,0,0.1,0,0.3,0V17.8c0-1.3,1.1-2.5,2.5-2.5h4.6
		c1.3,0,2.5,1.2,2.5,2.5v88.8c0,1.3-1.2,2.4-2.5,2.4h-2.4l-60.5-75.5h-0.1v71.8c0,1.3-1.1,2.5-2.5,2.5h-4.6c-1.3,0-2.5-1.2-2.5-2.5
		L160.5,16.3L160.5,16.3z"/>
	<path fill="#FFFFFF" d="M307.4,24.1h-23c-1.5,0-2.5-1.2-2.5-2.5v-3.8c0-1.3,1.1-2.5,2.5-2.5h55.9c1.5,0,2.5,1.2,2.5,2.5v3.8
		c0,1.3-1.1,2.5-2.5,2.5h-23v81c0,1.3-1.2,2.5-2.5,2.5h-5c-1.3,0-2.5-1.2-2.5-2.5v-81H307.4z"/>
	<path fill="#FFFFFF" d="M389,17.8c0-1.3,1.1-2.5,2.5-2.5h52c1.4,0,2.5,1.2,2.5,2.5v3.8c0,1.3-1.1,2.5-2.5,2.5h-44.3v32.2h37.9
		c1.3,0,2.5,1.2,2.5,2.5v3.8c0,1.5-1.2,2.5-2.5,2.5h-37.9v33.6h44.3c1.4,0,2.5,1.2,2.5,2.5v3.8c0,1.3-1.1,2.5-2.5,2.5h-52
		c-1.4,0-2.5-1.2-2.5-2.5V17.8L389,17.8z"/>
	<path fill="#FFFFFF" d="M498.8,17.8c0-1.3,1.1-2.5,2.5-2.5h5.1c1.3,0,2.5,1.2,2.5,2.5v81h38c1.4,0,2.5,1.2,2.5,2.5v3.8
		c0,1.3-1.1,2.5-2.5,2.5h-45.6c-1.4,0-2.5-1.2-2.5-2.5V17.8L498.8,17.8z"/>
</g>
</svg>
