<?xml version="1.0" encoding="utf-8"?>
<!-- Generator: Adobe Illustrator 17.1.0, SVG Export Plug-In . SVG Version: 6.00 Build 0)  -->
<!DOCTYPE svg PUBLIC "-//W3C//DTD SVG 1.1//EN" "http://www.w3.org/Graphics/SVG/1.1/DTD/svg11.dtd">
<svg version="1.1" id="Layer_1" xmlns="http://www.w3.org/2000/svg" xmlns:xlink="http://www.w3.org/1999/xlink" x="0px" y="0px"
	 viewBox="0 0 439 143" enable-background="new 0 0 439 143" xml:space="preserve">
<g id="Layer_1_1_">
	<g>
		<g>
			<path fill="#FFFFFF" d="M190.3,48.5c13,0,23.3,10.4,23.3,23.4c0,13-10.4,23.3-23.3,23.3S167,84.9,167,71.9
				C167,58.9,177.3,48.5,190.3,48.5z M190.3,90.6c10.3,0,18.8-8.4,18.8-18.7c0-10.3-8.5-18.9-18.8-18.9s-18.7,8.6-18.7,18.9
				C171.6,82.2,180,90.6,190.3,90.6z"/>
			<path fill="#FFFFFF" d="M239.1,49.6c0-0.6,0.6-1.2,1.2-1.2h1.6l29.2,36.4c0.1,0,0.1,0,0.1,0V50.4c0-0.6,0.5-1.2,1.2-1.2h2.3
				c0.6,0,1.2,0.6,1.2,1.2V94c0,0.6-0.6,1.2-1.2,1.2h-1.2L243.9,58h-0.1v35.3c0,0.6-0.5,1.2-1.2,1.2h-2.3c-0.6,0-1.2-0.6-1.2-1.2
				L239.1,49.6L239.1,49.6z"/>
			<path fill="#FFFFFF" d="M311.3,53.5H300c-0.7,0-1.2-0.6-1.2-1.2v-1.9c0-0.6,0.5-1.2,1.2-1.2h27.5c0.7,0,1.2,0.6,1.2,1.2v1.9
				c0,0.6-0.5,1.2-1.2,1.2h-11.3v39.8c0,0.6-0.6,1.2-1.2,1.2h-2.5c-0.6,0-1.2-0.6-1.2-1.2L311.3,53.5L311.3,53.5z"/>
			<path fill="#FFFFFF" d="M351.4,50.4c0-0.6,0.5-1.2,1.2-1.2h25.5c0.7,0,1.2,0.6,1.2,1.2v1.9c0,0.6-0.5,1.2-1.2,1.2h-21.8v15.8H375
				c0.6,0,1.2,0.6,1.2,1.2v1.9c0,0.7-0.6,1.2-1.2,1.2h-18.6v16.5h21.8c0.7,0,1.2,0.6,1.2,1.2v1.9c0,0.6-0.5,1.2-1.2,1.2h-25.5
				c-0.7,0-1.2-0.6-1.2-1.2V50.4z"/>
			<path fill="#FFFFFF" d="M405.4,50.4c0-0.6,0.5-1.2,1.2-1.2h2.5c0.6,0,1.2,0.6,1.2,1.2v39.8h18.7c0.7,0,1.2,0.6,1.2,1.2v1.9
				c0,0.6-0.5,1.2-1.2,1.2h-22.4c-0.7,0-1.2-0.6-1.2-1.2L405.4,50.4L405.4,50.4z"/>
		</g>
	</g>
</g>
</svg>
