<?xml version="1.0" encoding="utf-8"?>
<!-- Generator: Adobe Illustrator 17.1.0, SVG Export Plug-In . SVG Version: 6.00 Build 0)  -->
<!DOCTYPE svg PUBLIC "-//W3C//DTD SVG 1.1//EN" "http://www.w3.org/Graphics/SVG/1.1/DTD/svg11.dtd">
<svg version="1.1" id="Layer_1" xmlns="http://www.w3.org/2000/svg" xmlns:xlink="http://www.w3.org/1999/xlink" x="0px" y="0px"
	 viewBox="0 0 439 143" enable-background="new 0 0 439 143" xml:space="preserve">
<g id="Layer_1_1_">
	<g>
		<g>
			<polygon fill="#FFFFFF" points="56.6,21.2 43,42.8 85.2,110.1 112.2,110.1 			"/>
			<polygon fill="#FFFFFF" points="56.7,72.8 33.3,110.1 80,110.1 			"/>
			<path fill="#FFFFFF" d="M54.1,68.7L40.5,46.9L12.2,92.2c2.3,6.5,5.6,12.6,9.7,18h6.3L54.1,68.7z"/>
			<path fill="#FFFFFF" d="M132,92.2L79.7,8.6c-2.5-0.3-5-0.5-7.6-0.5c-2.6,0-5.1,0.2-7.6,0.5l-5.3,8.5l58.2,93h5
				C126.4,104.8,129.7,98.7,132,92.2z"/>
			<path fill="#FFFFFF" d="M25.5,114.5c11.6,12.5,28.1,20.4,46.6,20.4s35-7.9,46.6-20.4H25.5z"/>
			<path fill="#FFFFFF" d="M58.8,9.5c-28.6,6.1-50.1,31.5-50.1,62c0,5.2,0.6,10.3,1.8,15.1L58.8,9.5z"/>
			<path fill="#FFFFFF" d="M133.6,86.6c1.2-4.8,1.8-9.9,1.8-15.1c0-30.4-21.5-55.8-50.1-62L133.6,86.6z"/>
		</g>
	</g>
</g>
</svg>
